<svg id="Laag_1" data-name="Laag 1" xmlns="http://www.w3.org/2000/svg" viewBox="0 0 100 100"><title>image-loader</title><rect width="100" height="100" rx="50" ry="50" style="opacity:0.25"/><path d="M47.62,85.43l2.72-17.08,2.72,17.08a2.75,2.75,0,1,1-5.44,0Z"/><path d="M23.27,73.37l14-10.15-10.15,14a2.75,2.75,0,1,1-3.84-3.84Z" style="fill:#3d3d3d"/><path d="M14.57,47.62l17.08,2.72L14.57,53.06a2.75,2.75,0,1,1,0-5.44Z" style="fill:#797979"/><path d="M26.63,23.27l10.15,14-14-10.15a2.75,2.75,0,1,1,3.84-3.84Z" style="fill:#b5b5b5"/><path d="M52.38,14.57,49.66,31.65,46.94,14.57a2.75,2.75,0,1,1,5.44,0Z" style="fill:#f2f2f2"/><path d="M76.73,26.63l-14,10.15,10.15-14a2.75,2.75,0,1,1,3.84,3.84Z" style="fill:#f5f5f5"/><path d="M85.43,52.38,68.35,49.66l17.08-2.72a2.75,2.75,0,1,1,0,5.44Z" style="fill:#f7f7f7"/><path d="M73.37,76.73l-10.15-14,14,10.15a2.75,2.75,0,1,1-3.84,3.84Z" style="fill:#fafafa"/><path d="M61,42.84h-7a8,8,0,0,0-7.18,0H44.52v-.27a1.42,1.42,0,0,0-2.84,0v.27h-2A1.12,1.12,0,0,0,38.59,44v12.2a1.12,1.12,0,0,0,1.12,1.12H47a8,8,0,0,0,6.66,0H61a1.12,1.12,0,0,0,1.12-1.12V44A1.12,1.12,0,0,0,61,42.84ZM54.57,50a4.23,4.23,0,1,1-4.23-4.23A4.24,4.24,0,0,1,54.57,50Z" style="fill:#fff"/></svg>