<svg id="Laag_1" data-name="Laag 1" xmlns="http://www.w3.org/2000/svg" viewBox="0 0 800 100"><title>loader</title><rect width="800" height="100" style="opacity:0.25"/><path d="M47.62,85.43l2.72-17.08,2.72,17.08a2.75,2.75,0,1,1-5.44,0Z"/><path d="M23.27,73.37l14-10.15-10.15,14a2.75,2.75,0,1,1-3.84-3.84Z" style="fill:#3d3d3d"/><path d="M14.57,47.62l17.08,2.72L14.57,53.06a2.75,2.75,0,1,1,0-5.44Z" style="fill:#797979"/><path d="M26.63,23.27l10.15,14-14-10.15a2.75,2.75,0,1,1,3.84-3.84Z" style="fill:#b5b5b5"/><path d="M52.38,14.57,49.66,31.65,46.94,14.57a2.75,2.75,0,1,1,5.44,0Z" style="fill:#f2f2f2"/><path d="M76.73,26.63l-14,10.15,10.15-14a2.75,2.75,0,1,1,3.84,3.84Z" style="fill:#f5f5f5"/><path d="M85.43,52.38,68.35,49.66l17.08-2.72a2.75,2.75,0,1,1,0,5.44Z" style="fill:#f7f7f7"/><path d="M73.37,76.73l-10.15-14,14,10.15a2.75,2.75,0,1,1-3.84,3.84Z" style="fill:#fafafa"/><path d="M123.27,73.37l14-10.15-10.15,14a2.75,2.75,0,1,1-3.84-3.84Z"/><path d="M114.57,47.62l17.08,2.72-17.08,2.72a2.75,2.75,0,1,1,0-5.44Z" style="fill:#3d3d3d"/><path d="M126.63,23.27l10.15,14-14-10.15a2.75,2.75,0,1,1,3.84-3.84Z" style="fill:#797979"/><path d="M152.38,14.57l-2.72,17.08-2.72-17.08a2.75,2.75,0,1,1,5.44,0Z" style="fill:#b5b5b5"/><path d="M176.73,26.63l-14,10.15,10.15-14a2.75,2.75,0,1,1,3.84,3.84Z" style="fill:#f2f2f2"/><path d="M185.43,52.38l-17.08-2.72,17.08-2.72a2.75,2.75,0,1,1,0,5.44Z" style="fill:#f5f5f5"/><path d="M173.37,76.73l-10.15-14,14,10.15a2.75,2.75,0,1,1-3.84,3.84Z" style="fill:#f7f7f7"/><path d="M147.62,85.43l2.72-17.08,2.72,17.08a2.75,2.75,0,1,1-5.44,0Z" style="fill:#fafafa"/><path d="M214.57,47.62l17.08,2.72-17.08,2.72a2.75,2.75,0,1,1,0-5.44Z"/><path d="M226.63,23.27l10.15,14-14-10.15a2.75,2.75,0,1,1,3.84-3.84Z" style="fill:#3d3d3d"/><path d="M252.38,14.57l-2.72,17.08-2.72-17.08a2.75,2.75,0,1,1,5.44,0Z" style="fill:#797979"/><path d="M276.73,26.63l-14,10.15,10.15-14a2.75,2.75,0,1,1,3.84,3.84Z" style="fill:#b5b5b5"/><path d="M285.43,52.38l-17.08-2.72,17.08-2.72a2.75,2.75,0,1,1,0,5.44Z" style="fill:#f2f2f2"/><path d="M273.37,76.73l-10.15-14,14,10.15a2.75,2.75,0,1,1-3.84,3.84Z" style="fill:#f5f5f5"/><path d="M247.62,85.43l2.72-17.08,2.72,17.08a2.75,2.75,0,1,1-5.44,0Z" style="fill:#f7f7f7"/><path d="M223.27,73.37l14-10.15-10.15,14a2.75,2.75,0,1,1-3.84-3.84Z" style="fill:#fafafa"/><path d="M326.63,23.27l10.15,14-14-10.15a2.75,2.75,0,1,1,3.84-3.84Z"/><path d="M352.38,14.57l-2.72,17.08-2.72-17.08a2.75,2.75,0,1,1,5.44,0Z" style="fill:#3d3d3d"/><path d="M376.73,26.63l-14,10.15,10.15-14a2.75,2.75,0,1,1,3.84,3.84Z" style="fill:#797979"/><path d="M385.43,52.38l-17.08-2.72,17.08-2.72a2.75,2.75,0,1,1,0,5.44Z" style="fill:#b5b5b5"/><path d="M373.37,76.73l-10.15-14,14,10.15a2.75,2.75,0,1,1-3.84,3.84Z" style="fill:#f2f2f2"/><path d="M347.62,85.43l2.72-17.08,2.72,17.08a2.75,2.75,0,1,1-5.44,0Z" style="fill:#f5f5f5"/><path d="M323.27,73.37l14-10.15-10.15,14a2.75,2.75,0,1,1-3.84-3.84Z" style="fill:#f7f7f7"/><path d="M314.57,47.62l17.08,2.72-17.08,2.72a2.75,2.75,0,1,1,0-5.44Z" style="fill:#fafafa"/><path d="M452.38,14.57l-2.72,17.08-2.72-17.08a2.75,2.75,0,1,1,5.44,0Z"/><path d="M476.73,26.63l-14,10.15,10.15-14a2.75,2.75,0,1,1,3.84,3.84Z" style="fill:#3d3d3d"/><path d="M485.43,52.38l-17.08-2.72,17.08-2.72a2.75,2.75,0,1,1,0,5.44Z" style="fill:#797979"/><path d="M473.37,76.73l-10.15-14,14,10.15a2.75,2.75,0,1,1-3.84,3.84Z" style="fill:#b5b5b5"/><path d="M447.62,85.43l2.72-17.08,2.72,17.08a2.75,2.75,0,1,1-5.44,0Z" style="fill:#f2f2f2"/><path d="M423.27,73.37l14-10.15-10.15,14a2.75,2.75,0,1,1-3.84-3.84Z" style="fill:#f5f5f5"/><path d="M414.57,47.62l17.08,2.72-17.08,2.72a2.75,2.75,0,1,1,0-5.44Z" style="fill:#f7f7f7"/><path d="M426.63,23.27l10.15,14-14-10.15a2.75,2.75,0,1,1,3.84-3.84Z" style="fill:#fafafa"/><path d="M576.73,26.63l-14,10.15,10.15-14a2.75,2.75,0,1,1,3.84,3.84Z"/><path d="M585.43,52.38l-17.08-2.72,17.08-2.72a2.75,2.75,0,1,1,0,5.44Z" style="fill:#3d3d3d"/><path d="M573.37,76.73l-10.15-14,14,10.15a2.75,2.75,0,1,1-3.84,3.84Z" style="fill:#797979"/><path d="M547.62,85.43l2.72-17.08,2.72,17.08a2.75,2.75,0,1,1-5.44,0Z" style="fill:#b5b5b5"/><path d="M523.27,73.37l14-10.15-10.15,14a2.75,2.75,0,1,1-3.84-3.84Z" style="fill:#f2f2f2"/><path d="M514.57,47.62l17.08,2.72-17.08,2.72a2.75,2.75,0,1,1,0-5.44Z" style="fill:#f5f5f5"/><path d="M526.63,23.27l10.15,14-14-10.15a2.75,2.75,0,1,1,3.84-3.84Z" style="fill:#f7f7f7"/><path d="M552.38,14.57l-2.72,17.08-2.72-17.08a2.75,2.75,0,1,1,5.44,0Z" style="fill:#fafafa"/><path d="M685.43,52.38l-17.08-2.72,17.08-2.72a2.75,2.75,0,1,1,0,5.44Z"/><path d="M673.37,76.73l-10.15-14,14,10.15a2.75,2.75,0,1,1-3.84,3.84Z" style="fill:#3d3d3d"/><path d="M647.62,85.43l2.72-17.08,2.72,17.08a2.75,2.75,0,1,1-5.44,0Z" style="fill:#797979"/><path d="M623.27,73.37l14-10.15-10.15,14a2.75,2.75,0,1,1-3.84-3.84Z" style="fill:#b5b5b5"/><path d="M614.57,47.62l17.08,2.72-17.08,2.72a2.75,2.75,0,1,1,0-5.44Z" style="fill:#f2f2f2"/><path d="M626.63,23.27l10.15,14-14-10.15a2.75,2.75,0,1,1,3.84-3.84Z" style="fill:#f5f5f5"/><path d="M652.38,14.57l-2.72,17.08-2.72-17.08a2.75,2.75,0,1,1,5.44,0Z" style="fill:#f7f7f7"/><path d="M676.73,26.63l-14,10.15,10.15-14a2.75,2.75,0,1,1,3.84,3.84Z" style="fill:#fafafa"/><path d="M773.37,76.73l-10.15-14,14,10.15a2.75,2.75,0,1,1-3.84,3.84Z"/><path d="M747.62,85.43l2.72-17.08,2.72,17.08a2.75,2.75,0,1,1-5.44,0Z" style="fill:#3d3d3d"/><path d="M723.27,73.37l14-10.15-10.15,14a2.75,2.75,0,1,1-3.84-3.84Z" style="fill:#797979"/><path d="M714.57,47.62l17.08,2.72-17.08,2.72a2.75,2.75,0,1,1,0-5.44Z" style="fill:#b5b5b5"/><path d="M726.63,23.27l10.15,14-14-10.15a2.75,2.75,0,1,1,3.84-3.84Z" style="fill:#f2f2f2"/><path d="M752.38,14.57l-2.72,17.08-2.72-17.08a2.75,2.75,0,1,1,5.44,0Z" style="fill:#f5f5f5"/><path d="M776.73,26.63l-14,10.15,10.15-14a2.75,2.75,0,1,1,3.84,3.84Z" style="fill:#f7f7f7"/><path d="M785.43,52.38l-17.08-2.72,17.08-2.72a2.75,2.75,0,1,1,0,5.44Z" style="fill:#fafafa"/><path d="M61,42.84h-7a8,8,0,0,0-7.18,0H44.52v-.27a1.42,1.42,0,0,0-2.84,0v.27h-2A1.12,1.12,0,0,0,38.59,44v12.2a1.12,1.12,0,0,0,1.12,1.12H47a8,8,0,0,0,6.66,0H61a1.12,1.12,0,0,0,1.12-1.12V44A1.12,1.12,0,0,0,61,42.84ZM54.57,50a4.23,4.23,0,1,1-4.23-4.23A4.24,4.24,0,0,1,54.57,50Z" style="fill:#fff"/><path d="M152.75,37.38l-5,5a7.94,7.94,0,0,0-5.07,5.07L141.12,49l-.19-.19a1.42,1.42,0,0,0-2,2l.19.19-1.39,1.39a1.12,1.12,0,0,0,0,1.59l8.62,8.62a1.12,1.12,0,0,0,1.59,0l5.16-5.16a8,8,0,0,0,4.71-4.71L163,47.59A1.12,1.12,0,0,0,163,46l-8.62-8.62A1.12,1.12,0,0,0,152.75,37.38Zm.53,9.59a4.22,4.22,0,1,1-6,0A4.22,4.22,0,0,1,153.28,47Z" style="fill:#fff"/><path d="M242.74,39.37v7a7.92,7.92,0,0,0,0,7.18v2.23h-.28a1.42,1.42,0,0,0,0,2.84h.28v2a1.12,1.12,0,0,0,1.12,1.12h12.2a1.12,1.12,0,0,0,1.12-1.12v-7.3a8,8,0,0,0,0-6.66v-7.3a1.12,1.12,0,0,0-1.12-1.12h-12.2A1.12,1.12,0,0,0,242.74,39.37Zm7.16,6.4A4.23,4.23,0,1,1,245.67,50,4.23,4.23,0,0,1,249.9,45.77Z" style="fill:#fff"/><path d="M337.72,47.59l5,5a7.94,7.94,0,0,0,5.07,5.07l1.58,1.58-.19.19a1.42,1.42,0,0,0,2,2l.19-.19,1.39,1.39a1.12,1.12,0,0,0,1.59,0L363,54a1.12,1.12,0,0,0,0-1.59l-5.16-5.16a8,8,0,0,0-4.71-4.71l-5.16-5.16a1.12,1.12,0,0,0-1.59,0L337.72,46A1.12,1.12,0,0,0,337.72,47.59Zm9.59-.53a4.22,4.22,0,1,1,0,6A4.22,4.22,0,0,1,347.31,47.06Z" style="fill:#fff"/><path d="M439.37,57.16h7a8,8,0,0,0,7.18,0h2.23v.27a1.42,1.42,0,0,0,2.84,0v-.27h2A1.12,1.12,0,0,0,461.75,56V43.84a1.12,1.12,0,0,0-1.12-1.12h-7.3a8,8,0,0,0-6.66,0h-7.3a1.12,1.12,0,0,0-1.12,1.12V56A1.12,1.12,0,0,0,439.37,57.16Zm6.4-7.16A4.23,4.23,0,1,1,450,54.23,4.24,4.24,0,0,1,445.77,50Z" style="fill:#fff"/><path d="M547.69,62.58l5-5a7.94,7.94,0,0,0,5.07-5.07L559.32,51l.2.19a1.42,1.42,0,1,0,2-2l-.19-.19,1.39-1.39a1.12,1.12,0,0,0,0-1.59l-8.62-8.62a1.12,1.12,0,0,0-1.59,0l-5.16,5.16a8,8,0,0,0-4.71,4.71l-5.16,5.16a1.12,1.12,0,0,0,0,1.59l8.63,8.62A1.11,1.11,0,0,0,547.69,62.58ZM547.16,53a4.22,4.22,0,1,1,6,0A4.22,4.22,0,0,1,547.16,53Z" style="fill:#fff"/><path d="M657.08,60.63v-7a7.92,7.92,0,0,0,0-7.18V44.18h.27a1.42,1.42,0,0,0,0-2.84h-.27v-2A1.12,1.12,0,0,0,656,38.25h-12.2a1.12,1.12,0,0,0-1.12,1.12v7.3a8,8,0,0,0,0,6.66v7.3a1.12,1.12,0,0,0,1.12,1.12H656A1.12,1.12,0,0,0,657.08,60.63Zm-7.16-6.4A4.23,4.23,0,1,1,654.15,50,4.23,4.23,0,0,1,649.92,54.23Z" style="fill:#fff"/><path d="M762.62,52.41l-5-5a7.94,7.94,0,0,0-5.07-5.07L751,40.78l.19-.19a1.42,1.42,0,0,0-2-2l-.19.19-1.39-1.39a1.12,1.12,0,0,0-1.59,0L737.38,46a1.12,1.12,0,0,0,0,1.59l5.16,5.16a8,8,0,0,0,4.71,4.71l5.16,5.16a1.12,1.12,0,0,0,1.59,0L762.62,54A1.12,1.12,0,0,0,762.62,52.41Zm-9.59.53a4.22,4.22,0,1,1,0-6A4.22,4.22,0,0,1,753,52.94Z" style="fill:#fff"/></svg>