<svg id="Laag_1" data-name="Laag 1" xmlns="http://www.w3.org/2000/svg" viewBox="0 0 167 167"><title>zerostate-controls</title><path d="M62,70.18a.72.72,0,0,1-.11-.37c0-.42.41-.58.78-.58s.48.16.47.36a8.61,8.61,0,0,1,2.65-.53c.91,0,1.58.41,1.58,1A1.86,1.86,0,0,1,66,71.77v0c.14,0,.26,0,.41,0a1.72,1.72,0,0,1,1.87,1.52c0,2.59-4.28,3.7-5.84,3.7-.48,0-.71-.19-.71-.54A.48.48,0,0,1,62,76ZM63.12,72c1.33-.07,3.06-.84,3.06-1.55,0-.24-.17-.43-.87-.43a5.65,5.65,0,0,0-2.19.58Zm0,3.91c1.55-.13,4-1,4-2.46,0-.38-.41-.89-1.43-.89a7.68,7.68,0,0,0-2.11.35c-.32.12-.43.21-.43.37Z" style="fill:#fff"/><path d="M73.77,73c0,.54-.37,1-3.15,1.53l-.55.09a2.17,2.17,0,0,0-.09.65.74.74,0,0,0,.84.83,2.28,2.28,0,0,0,1.73-.8c0-.28.2-.52.6-.52s.54.27.54.51a3.1,3.1,0,0,1-3,1.75c-1,0-1.79-.44-1.79-1.69,0-2.22,1.56-3.82,3.12-3.82A1.59,1.59,0,0,1,73.77,73Zm-3.48.77c2.12-.37,2.42-.55,2.42-.72s-.21-.6-.72-.6A2,2,0,0,0,70.29,73.79Z" style="fill:#fff"/><path d="M78.55,69.94a.46.46,0,0,1-.17-.42c0-.3.3-.52.72-.52a.54.54,0,0,1,.59.56l0,.4v6.18a.4.4,0,0,1,.16.3c0,.36-.23.5-.73.5s-.59-.16-.59-.48c0-.12,0-.22.06-.27v-.83a4,4,0,0,1-2.93,1.73,1.31,1.31,0,0,1-1.33-1.42,4.07,4.07,0,0,1,3.46-3.76,1.44,1.44,0,0,1,.8.2Zm-3.12,5.49c0,.37.12.64.56.64a2.6,2.6,0,0,0,1.7-1,2,2,0,0,0,.84-1.5.72.72,0,0,0-.77-.79C76.77,72.82,75.43,74.45,75.43,75.43Z" style="fill:#fff"/><path d="M81.13,72.63a.52.52,0,0,1-.11-.32c0-.33,0-.69.76-.69a.68.68,0,0,1,.6.55.92.92,0,0,1-.13.41V76a.49.49,0,0,1,.15.33c0,.41-.5.59-.87.59a.51.51,0,0,1-.54-.56.62.62,0,0,1,.14-.41Zm1.26-2.75c0,.71-.34,1.12-.72,1.12s-.54-.24-.54-.59c0-.6.27-1.08.72-1.08A.49.49,0,0,1,82.39,69.88Z" style="fill:#fff"/><path d="M88.23,73c0,.54-.37,1-3.15,1.53l-.55.09a2.17,2.17,0,0,0-.09.65.74.74,0,0,0,.84.83,2.28,2.28,0,0,0,1.73-.8c0-.28.2-.52.6-.52s.54.27.54.51a3.1,3.1,0,0,1-3,1.75c-1,0-1.79-.44-1.79-1.69,0-2.22,1.56-3.82,3.12-3.82A1.59,1.59,0,0,1,88.23,73Zm-3.48.77c2.12-.37,2.42-.55,2.42-.72s-.21-.6-.72-.6A2,2,0,0,0,84.75,73.79Z" style="fill:#fff"/><path d="M90.48,76.21a.45.45,0,0,1,.08.29c0,.31-.43.43-.74.43s-.6-.12-.6-.41a.37.37,0,0,1,.14-.33V74.32a.51.51,0,0,1-.18-.4,1.93,1.93,0,0,1,.18-.71v-1a.63.63,0,0,1-.09-.35c0-.25.37-.5.73-.5s.6.17.6.42a.64.64,0,0,1-.12.37v.47c1.22-1,1.77-1.26,2.21-1.26a.92.92,0,0,1,.88.79v3.93a.52.52,0,0,1,.09.31c0,.37-.24.5-.7.5s-.6-.17-.6-.45a.55.55,0,0,1,.1-.32V72.79c0-.08-.18-.22-.28-.22s-.56.15-1.7,1.11Z" style="fill:#fff"/><path d="M95,72.63a.51.51,0,0,1-.1-.32c0-.33,0-.69.75-.69a.67.67,0,0,1,.6.55.92.92,0,0,1-.13.41V76a.49.49,0,0,1,.16.33c0,.41-.51.59-.88.59a.52.52,0,0,1-.54-.56A.68.68,0,0,1,95,76Zm1.26-2.75c0,.71-.33,1.12-.72,1.12s-.54-.24-.54-.59c0-.6.27-1.08.72-1.08A.49.49,0,0,1,96.27,69.88Z" style="fill:#fff"/><path d="M98.75,76.21a.45.45,0,0,1,.08.29c0,.31-.43.43-.74.43s-.6-.12-.6-.41a.37.37,0,0,1,.14-.33V74.32a.51.51,0,0,1-.18-.4,1.93,1.93,0,0,1,.18-.71v-1a.63.63,0,0,1-.09-.35c0-.25.37-.5.73-.5s.6.17.6.42a.73.73,0,0,1-.12.37v.47c1.22-1,1.77-1.26,2.2-1.26a.93.93,0,0,1,.89.79v3.93a.53.53,0,0,1,.08.31c0,.37-.24.5-.69.5s-.6-.17-.6-.45a.55.55,0,0,1,.1-.32V72.79c0-.08-.18-.22-.28-.22s-.56.15-1.7,1.11Z" style="fill:#fff"/><path d="M107.64,77.08a2.39,2.39,0,0,1-2.49,2.36c-1,0-1.77-.4-1.77-.86a.56.56,0,0,1,.53-.63.44.44,0,0,1,.44.35,1.62,1.62,0,0,0,.86.24c.58,0,1.31-.37,1.31-1.56,0-.61,0-1.21,0-1.81a2.86,2.86,0,0,1-2.4,1.93,1.22,1.22,0,0,1-1.32-1.36,4.13,4.13,0,0,1,4.09-4.1c.47,0,.74.18.74.61Zm-1.44-3a4.67,4.67,0,0,0,.32-1.48h0c-1.43,0-2.6,1.59-2.6,3,0,.33.13.55.35.55C104.77,76.13,105.73,75.42,106.2,74Z" style="fill:#fff"/><path d="M84.5,84v18.63A31.11,31.11,0,0,1,72.94,127c-5.75,4.59-11.78,14.26-13.15,30.47" style="fill:none;stroke:#fff;stroke-miterlimit:10"/><polygon points="59.5 164.5 55.93 154.36 59.87 156.92 64.05 154.76 59.5 164.5" style="fill:#fff"/></svg>