<svg id="Laag_1" data-name="Laag 1" xmlns="http://www.w3.org/2000/svg" viewBox="0 0 322.33 45.67"><title>zerostate-title</title><path d="M10.41,20.16a.94.94,0,0,1-.15-.5c0-.57.55-.78,1.05-.78s.65.21.64.49a11.18,11.18,0,0,1,3.57-.72c1.23,0,2.14.55,2.14,1.38a2.53,2.53,0,0,1-1.8,2.28v0c.2,0,.36,0,.55,0a2.31,2.31,0,0,1,2.53,2c0,3.5-5.78,5-7.89,5-.64,0-1-.26-1-.73a.63.63,0,0,1,.31-.59ZM12,22.6c1.8-.09,4.13-1.13,4.13-2.09,0-.32-.23-.58-1.17-.58a7.69,7.69,0,0,0-3,.78Zm0,5.28c2.09-.18,5.36-1.41,5.36-3.32,0-.52-.55-1.2-1.93-1.2a10.81,10.81,0,0,0-2.85.47c-.43.16-.58.28-.58.5Z" style="fill:#fff"/><path d="M26.34,24c0,.73-.5,1.4-4.26,2.06l-.74.13a3,3,0,0,0-.11.87,1,1,0,0,0,1.13,1.12,3.1,3.1,0,0,0,2.33-1.07c-.05-.39.28-.71.81-.71a.64.64,0,0,1,.73.7c0,.45-1.41,2.36-4.06,2.36-1.38,0-2.42-.6-2.42-2.28,0-3,2.11-5.17,4.21-5.17A2.15,2.15,0,0,1,26.34,24Zm-4.69,1c2.85-.5,3.25-.74,3.25-1,0-.39-.27-.81-1-.81A2.71,2.71,0,0,0,21.65,25Z" style="fill:#fff"/><path d="M29.31,24.67l0,0c.47-.59.79-.93,1.07-1.23l1.49-1.43a.58.58,0,0,1,.6-.52.78.78,0,0,1,.84.8.58.58,0,0,1-.53.6l-2.32,2.38L33,28a.54.54,0,0,1,.58.53c0,.47-.39.83-1,.83a.57.57,0,0,1-.55-.47l-1.68-1.8c-.24-.29-.55-.6-1-1.16h0v2a1.66,1.66,0,0,1,.18.53c0,.57-.31.81-1,.81a.78.78,0,0,1-.89-.84A.67.67,0,0,1,27.8,28V19.77a.75.75,0,0,1-.19-.45c0-.38.14-.76.95-.76.62,0,.89.21.89.72a.68.68,0,0,1-.14.42Z" style="fill:#fff"/><path d="M35,23.46A.62.62,0,0,1,34.8,23c0-.45,0-.94,1-.94a.91.91,0,0,1,.81.75,1.23,1.23,0,0,1-.18.55V28a.64.64,0,0,1,.21.45c0,.55-.68.79-1.18.79a.71.71,0,0,1-.73-.76A.82.82,0,0,1,35,28Zm1.7-3.71c0,1-.46,1.51-1,1.51s-.72-.33-.72-.79c0-.81.35-1.46,1-1.46A.67.67,0,0,1,36.65,19.75Z" style="fill:#fff"/><path d="M40.19,30.71a2.36,2.36,0,0,1-2.47,2.58,2.18,2.18,0,0,1-2.21-1.62.86.86,0,0,1,.83-.94.61.61,0,0,1,.63.79.94.94,0,0,0,.75.47c.64,0,1-.47,1-1.63V23.67a1.3,1.3,0,0,1-.23-.6c0-.65.37-1,1.18-1,.47,0,.8.32.8.94a1.22,1.22,0,0,1-.25.65ZM40.35,20c0,.51-.11,1.33-1,1.33-.47,0-.73-.55-.73-1.23a1.16,1.16,0,0,1,1.12-1.15C40.35,18.91,40.35,19.43,40.35,20Z" style="fill:#fff"/><path d="M43.68,24.67l0,0c.47-.59.79-.93,1.07-1.23l1.49-1.43a.57.57,0,0,1,.59-.52.78.78,0,0,1,.85.8.59.59,0,0,1-.54.6l-2.31,2.38L47.37,28a.54.54,0,0,1,.58.53c0,.47-.39.83-1,.83a.56.56,0,0,1-.55-.47l-1.68-1.8c-.25-.29-.56-.6-1-1.16h0v2a1.64,1.64,0,0,1,.17.53c0,.57-.3.81-1,.81a.78.78,0,0,1-.89-.84.63.63,0,0,1,.16-.47V19.77a.75.75,0,0,1-.19-.45c0-.38.14-.76,1-.76.62,0,.89.21.89.72a.75.75,0,0,1-.14.42Z" style="fill:#fff"/><path d="M53,24l-.83.13a.5.5,0,0,1-.31.1c-.22,0-.53-.13-.53-.78,0-.29.19-.67.45-.67a1.15,1.15,0,0,1,.36.07l.86-.15c0-2.86.45-4.3,2.3-4.3.87,0,2,.81,2,1.36a.73.73,0,0,1-.7.77A.55.55,0,0,1,56,20a1,1,0,0,0-.82-.37c-.51,0-.73.63-.73,2.8l1.81-.29c.1,0,.21-.18.37-.18a.64.64,0,0,1,.65.66c0,.47-.19.83-.52.83a.66.66,0,0,1-.34-.08l-2,.32v4.5a1.06,1.06,0,0,1,.16.46c0,.42-.37.61-.88.61s-.89-.21-.89-.66A.8.8,0,0,1,53,28.3Z" style="fill:#fff"/><path d="M64.08,25a4.68,4.68,0,0,1-1.25,3,4.25,4.25,0,0,1-3.48,1.54,2.39,2.39,0,0,1-2.23-2.58,4.69,4.69,0,0,1,4.47-5C63.6,21.94,64.08,23.83,64.08,25Zm-5.44,1.67c0,.95.5,1.55,1.07,1.55a2.59,2.59,0,0,0,1.86-.83,3.21,3.21,0,0,0,1-2.31c0-1-.32-1.88-1.23-1.88C60,23.2,58.64,24.84,58.64,26.67Z" style="fill:#fff"/><path d="M66.66,21c0-.06-.1-.13-.1-.4,0-.44.42-.57,1-.57.32,0,.73.06.73.5a.6.6,0,0,1-.17.39v1l2-.34a.48.48,0,0,1,.31-.13.61.61,0,0,1,.6.67c0,.52-.22.78-.56.78-.11,0-.21,0-.25-.09l-2.13.34v4.37c0,.28.09.47.3.47a5,5,0,0,0,2.23-1.53.57.57,0,0,1,.62-.63c.64,0,.82.32.82.77,0,.63-2.75,2.85-4.19,2.85A1.24,1.24,0,0,1,66.66,28V23.36l-1,.17a.59.59,0,0,1-.32.14.73.73,0,0,1,0-1.46.42.42,0,0,1,.28.1l1.1-.19Z" style="fill:#fff"/><path d="M79.5,25a4.68,4.68,0,0,1-1.25,3,4.25,4.25,0,0,1-3.48,1.54,2.39,2.39,0,0,1-2.23-2.58,4.69,4.69,0,0,1,4.47-5C79,21.94,79.5,23.83,79.5,25Zm-5.44,1.67c0,.95.5,1.55,1.07,1.55A2.59,2.59,0,0,0,77,27.39a3.21,3.21,0,0,0,1-2.31c0-1-.32-1.88-1.23-1.88C75.4,23.2,74.06,24.84,74.06,26.67Z" style="fill:#fff"/><path d="M82.09,21.1a1.33,1.33,0,0,1,.12.61c0,.37-.24.73-.93.73-.37,0-.64-.06-.64-.5a1.12,1.12,0,0,1,.29-.68V19.62c-.08-.13-.23-.29-.23-.47,0-.47.28-.84.94-.84a.69.69,0,0,1,.71.65.66.66,0,0,1-.26.58Z" style="fill:#fff"/><path d="M89.8,22.75a.59.59,0,0,1-.63.63c-.29,0-.32-.08-.39-.16S88.6,23,87.92,23c-1.6,0-2.83.84-2.83,1.57a.4.4,0,0,0,.45.42A7.84,7.84,0,0,0,87,24.67a7.55,7.55,0,0,1,1.82-.37A1.61,1.61,0,0,1,90.61,26c0,2.59-3.38,3.44-4.63,3.44s-2.25-.6-2.25-1.36a.78.78,0,0,1,.81-.86c.47,0,.6.27.6.42a.52.52,0,0,1-.06.23,1.38,1.38,0,0,0,1,.35c1.1,0,3.06-.7,3.06-2a.6.6,0,0,0-.68-.65,7,7,0,0,0-1.49.36,6.55,6.55,0,0,1-1.93.36,1.41,1.41,0,0,1-1.42-1.51c0-1.71,2.39-2.94,4.32-2.94C89,21.83,89.8,22.15,89.8,22.75Z" style="fill:#fff"/><path d="M95.85,28.45a9.51,9.51,0,0,0-.57-2,12.77,12.77,0,0,1-.84-3.24.55.55,0,0,1-.12-.37c0-.33.34-.72,1-.72a.79.79,0,0,1,.84.6,1,1,0,0,1-.16.49,10.54,10.54,0,0,0,.42,2.17l.53,1.76A15.21,15.21,0,0,1,98,24.9a18.11,18.11,0,0,0,1.12-2.09c.24-.56.48-.82.95-.82s.73.21.73.68-.68,1.34-1.5,2.65a15,15,0,0,0-1.75,3.37.81.81,0,0,1-.86.65A.78.78,0,0,1,95.85,28.45Z" style="fill:#fff"/><path d="M105.89,23.7c0-.42-.15-.63-.57-.63a4.17,4.17,0,0,0-2.23.68c0,.13-.21.46-.68.46a.78.78,0,0,1-.68-.77.75.75,0,0,1,.74-.66,6.21,6.21,0,0,1,3.42-.89,1.39,1.39,0,0,1,1.47,1.46v5a.58.58,0,0,1,.13.37c0,.48-.58.6-1.07.6s-.7-.24-.7-.5a.82.82,0,0,1,.13-.39v-.73h0a4.72,4.72,0,0,1-3.61,1.83,1.33,1.33,0,0,1-1.49-1.31c0-1.43,1.76-3.26,5.15-3.66Zm0,1.85c-2.13.24-3.62,1.54-3.62,2.27,0,.29.22.37.55.37,1.18,0,3.07-1.41,3.07-2.14Z" style="fill:#fff"/><path d="M111,28.3a.58.58,0,0,1,.11.39c0,.42-.58.58-1,.58s-.81-.16-.81-.55a.53.53,0,0,1,.19-.45V25.74a.64.64,0,0,1-.24-.53,2.62,2.62,0,0,1,.24-1V23a.94.94,0,0,1-.13-.49c0-.32.5-.66,1-.66s.81.23.81.57a1,1,0,0,1-.16.5v.63c1.65-1.38,2.39-1.7,3-1.7a1.25,1.25,0,0,1,1.19,1.07v5.29a.78.78,0,0,1,.12.42c0,.5-.33.68-.94.68s-.81-.22-.81-.61a.72.72,0,0,1,.13-.42V23.69c0-.12-.24-.31-.37-.31s-.76.21-2.3,1.5Z" style="fill:#fff"/><path d="M121.79,30.71a2.36,2.36,0,0,1-2.47,2.58,2.17,2.17,0,0,1-2.2-1.62.85.85,0,0,1,.82-.94.61.61,0,0,1,.63.79,1,1,0,0,0,.75.47c.64,0,1-.47,1-1.63V23.67a1.3,1.3,0,0,1-.23-.6c0-.65.37-1,1.18-1,.47,0,.8.32.8.94a1.22,1.22,0,0,1-.25.65ZM122,20c0,.51-.12,1.33-1,1.33-.47,0-.73-.55-.73-1.23a1.16,1.16,0,0,1,1.12-1.15C122,18.91,122,19.43,122,20Z" style="fill:#fff"/><path d="M130.25,25A4.68,4.68,0,0,1,129,28a4.26,4.26,0,0,1-3.48,1.54,2.39,2.39,0,0,1-2.23-2.58,4.69,4.69,0,0,1,4.46-5C129.76,21.94,130.25,23.83,130.25,25Zm-5.44,1.67c0,.95.5,1.55,1.07,1.55a2.61,2.61,0,0,0,1.86-.83,3.21,3.21,0,0,0,1-2.31c0-1-.33-1.88-1.23-1.88C126.15,23.2,124.81,24.84,124.81,26.67Z" style="fill:#fff"/><path d="M133.25,27.49a.63.63,0,0,0,.51.52A3.86,3.86,0,0,0,136,26.55V23a.8.8,0,0,1-.11-.36c0-.4.19-.56.74-.56s1,.08.86.9v5.23a.7.7,0,0,1,.14.42c0,.38-.35.6-1,.6-.5,0-.73-.18-.73-.5a1,1,0,0,1,.15-.37V28a4,4,0,0,1-2.79,1.44A1.53,1.53,0,0,1,131.76,28V23.15a1.57,1.57,0,0,1-.1-.39c0-.53.45-.68,1-.68a.69.69,0,0,1,.77.65.61.61,0,0,1-.13.39Z" style="fill:#fff"/><path d="M140.47,22.94l.94,3.95h0L143,23.41a1.33,1.33,0,0,1-.16-.65c0-.35.32-.59.85-.59s.75.29.75,1.24l1.12,3.42h0a7.73,7.73,0,0,1,.74-1.78,3.82,3.82,0,0,0,.5-1.88,1,1,0,0,1-.11-.42c0-.41.5-.68,1-.68a.65.65,0,0,1,.68.6.69.69,0,0,1-.18.52,6,6,0,0,1-.76,2.44,13.17,13.17,0,0,0-1.21,3.06c.11.39,0,.61-.71.61s-.77-.24-.78-.61L143.66,25,142,28.48c0,.63-.36.82-.84.82s-.71-.25-.75-.89l-1.28-5.16a.6.6,0,0,1-.17-.49.75.75,0,0,1,.76-.82c.5,0,.84.14.84.55A.73.73,0,0,1,140.47,22.94Z" style="fill:#fff"/><path d="M154.16,23.43l0,0a5.3,5.3,0,0,1,3.33-1.33,1.44,1.44,0,0,1,1.57,1.65c0,2.25-3,5.64-5.79,5.64-.6,0-.89-.18-.89-.67a.74.74,0,0,1,.26-.55V19.74a.85.85,0,0,1-.21-.6c0-.41.71-.58,1.08-.58s.76.12.76.59a.79.79,0,0,1-.14.44Zm0,4.51c1.61-.55,3.41-2.23,3.41-4.07,0-.41-.55-.46-.71-.46a4.39,4.39,0,0,0-2.7,1.39Z" style="fill:#fff"/><path d="M161.93,27.49a.65.65,0,0,0,.52.52,3.84,3.84,0,0,0,2.18-1.46V23a.8.8,0,0,1-.11-.36c0-.4.19-.56.75-.56s1,.08.85.9v5.23a.71.71,0,0,1,.15.42c0,.38-.36.6-1,.6-.5,0-.73-.18-.73-.5a1,1,0,0,1,.15-.37V28a3.93,3.93,0,0,1-2.78,1.44A1.54,1.54,0,0,1,160.44,28V23.15a1.57,1.57,0,0,1-.1-.39c0-.53.46-.68,1-.68a.69.69,0,0,1,.76.65.61.61,0,0,1-.13.39Z" style="fill:#fff"/><path d="M169.59,27.49a.65.65,0,0,0,.52.52,3.84,3.84,0,0,0,2.18-1.46V23a1,1,0,0,1-.11-.36c0-.4.2-.56.75-.56s1,.08.85.9v5.23a.65.65,0,0,1,.15.42c0,.38-.36.6-1,.6-.5,0-.73-.18-.73-.5a1,1,0,0,1,.15-.37V28a3.93,3.93,0,0,1-2.78,1.44A1.54,1.54,0,0,1,168.1,28V23.15c0-.11-.1-.22-.1-.39,0-.53.46-.68,1-.68a.69.69,0,0,1,.76.65.61.61,0,0,1-.13.39Z" style="fill:#fff"/><path d="M175.76,23.07l-.13-.42c0-.31.42-.6.94-.6s.8.23.8.55a.45.45,0,0,1-.1.36v.58h0a4.5,4.5,0,0,1,2.59-1.44c.51,0,1,.49,1,2a.71.71,0,0,1-.81.74c-.47,0-.75-.18-.75-.44a1.84,1.84,0,0,1,.07-.42c0-.19-.07-.37-.19-.37a4.39,4.39,0,0,0-1.93,1.54v3a.71.71,0,0,1,.19.45c0,.49-.27.73-1.15.73-.51,0-.76-.21-.76-.63a.53.53,0,0,1,.21-.4Z" style="fill:#fff"/><path d="M183.05,21c-.05-.06-.1-.13-.1-.4,0-.44.43-.57,1-.57.32,0,.73.06.73.5a.64.64,0,0,1-.16.39v1l2-.34a.48.48,0,0,1,.31-.13.61.61,0,0,1,.6.67c0,.52-.21.78-.55.78a.3.3,0,0,1-.26-.09l-2.12.34v4.37c0,.28.08.47.29.47a5,5,0,0,0,2.23-1.53.58.58,0,0,1,.62-.63c.64,0,.82.32.82.77,0,.63-2.75,2.85-4.19,2.85A1.24,1.24,0,0,1,183.05,28V23.36l-1,.17a.59.59,0,0,1-.32.14.73.73,0,0,1,0-1.46.42.42,0,0,1,.27.1l1.1-.19Z" style="fill:#fff"/><path d="M197.51,19.83a.6.6,0,0,1-.22-.56c0-.41.4-.7,1-.7a.73.73,0,0,1,.79.75l-.05.55V28.2a.52.52,0,0,1,.21.41c0,.48-.31.68-1,.68s-.8-.23-.8-.65c0-.16,0-.31.08-.37V27.15a5.39,5.39,0,0,1-3.95,2.33,1.75,1.75,0,0,1-1.79-1.91c0-2.54,2.6-5.08,4.66-5.08a1.91,1.91,0,0,1,1.08.27Zm-4.21,7.42c0,.5.17.86.76.86a3.5,3.5,0,0,0,2.29-1.3,2.68,2.68,0,0,0,1.13-2,1,1,0,0,0-1-1.07C195.12,23.72,193.3,25.92,193.3,27.25Z" style="fill:#fff"/><path d="M207.46,25a4.68,4.68,0,0,1-1.25,3,4.26,4.26,0,0,1-3.48,1.54,2.39,2.39,0,0,1-2.23-2.58,4.69,4.69,0,0,1,4.46-5C207,21.94,207.46,23.83,207.46,25ZM202,26.67c0,.95.5,1.55,1.07,1.55a2.61,2.61,0,0,0,1.86-.83,3.21,3.21,0,0,0,1-2.31c0-1-.32-1.88-1.23-1.88C203.36,23.2,202,24.84,202,26.67Z" style="fill:#fff"/><path d="M215.31,25a4.73,4.73,0,0,1-1.24,3,4.28,4.28,0,0,1-3.49,1.54,2.39,2.39,0,0,1-2.23-2.58,4.69,4.69,0,0,1,4.47-5C214.83,21.94,215.31,23.83,215.31,25Zm-5.44,1.67c0,.95.5,1.55,1.07,1.55a2.59,2.59,0,0,0,1.86-.83,3.21,3.21,0,0,0,1-2.31c0-1-.32-1.88-1.23-1.88C211.22,23.2,209.87,24.84,209.87,26.67Z" style="fill:#fff"/><path d="M216.82,23.07l-.13-.42c0-.31.42-.6.94-.6s.79.23.79.55a.44.44,0,0,1-.09.36v.58h0a4.5,4.5,0,0,1,2.59-1.44c.51,0,1,.49,1,2a.71.71,0,0,1-.81.74c-.47,0-.75-.18-.75-.44a1.84,1.84,0,0,1,.07-.42c0-.19-.07-.37-.2-.37a4.44,4.44,0,0,0-1.92,1.54v3a.77.77,0,0,1,.19.45c0,.49-.27.73-1.15.73-.52,0-.76-.21-.76-.63a.53.53,0,0,1,.21-.4Z" style="fill:#fff"/><path d="M230.88,19.83a.61.61,0,0,1-.23-.56c0-.41.41-.7,1-.7a.73.73,0,0,1,.8.75l0,.55V28.2a.52.52,0,0,1,.21.41c0,.48-.31.68-1,.68s-.79-.23-.79-.65c0-.16,0-.31.08-.37V27.15a5.41,5.41,0,0,1-3.95,2.33,1.75,1.75,0,0,1-1.8-1.91c0-2.54,2.61-5.08,4.66-5.08a1.94,1.94,0,0,1,1.09.27Zm-4.21,7.42c0,.5.16.86.76.86a3.48,3.48,0,0,0,2.28-1.3,2.66,2.66,0,0,0,1.14-2,1,1,0,0,0-1-1.07C228.48,23.72,226.67,25.92,226.67,27.25Z" style="fill:#fff"/><path d="M240.47,24c0,.73-.51,1.4-4.26,2.06l-.75.13a3,3,0,0,0-.11.87,1,1,0,0,0,1.13,1.12,3.15,3.15,0,0,0,2.34-1.07c0-.39.27-.71.8-.71a.64.64,0,0,1,.73.7c0,.45-1.41,2.36-4.06,2.36-1.38,0-2.41-.6-2.41-2.28,0-3,2.1-5.17,4.21-5.17A2.16,2.16,0,0,1,240.47,24Zm-4.7,1c2.85-.5,3.26-.74,3.26-1,0-.39-.28-.81-1-.81A2.72,2.72,0,0,0,235.77,25Z" style="fill:#fff"/><path d="M246.66,30.71a2.37,2.37,0,0,1-2.48,2.58,2.18,2.18,0,0,1-2.2-1.62.85.85,0,0,1,.82-.94.61.61,0,0,1,.63.79,1,1,0,0,0,.75.47c.65,0,1-.47,1-1.63V23.67a1.3,1.3,0,0,1-.23-.6c0-.65.38-1,1.19-1,.47,0,.79.32.79.94a1.2,1.2,0,0,1-.24.65ZM246.82,20c0,.51-.12,1.33-1,1.33-.47,0-.73-.55-.73-1.23a1.16,1.16,0,0,1,1.12-1.15C246.82,18.91,246.82,19.43,246.82,20Z" style="fill:#fff"/><path d="M253,23.7c0-.42-.15-.63-.57-.63a4.17,4.17,0,0,0-2.23.68c0,.13-.21.46-.68.46a.78.78,0,0,1-.68-.77.75.75,0,0,1,.74-.66,6.21,6.21,0,0,1,3.42-.89,1.39,1.39,0,0,1,1.47,1.46v5a.58.58,0,0,1,.13.37c0,.48-.58.6-1.07.6s-.7-.24-.7-.5a.82.82,0,0,1,.13-.39v-.73h0a4.72,4.72,0,0,1-3.61,1.83,1.33,1.33,0,0,1-1.49-1.31c0-1.43,1.76-3.26,5.15-3.66Zm0,1.85c-2.13.24-3.62,1.54-3.62,2.27,0,.29.22.37.55.37,1.18,0,3.07-1.41,3.07-2.14Z" style="fill:#fff"/><path d="M256.55,23.07l-.13-.42c0-.31.42-.6.94-.6s.8.23.8.55a.45.45,0,0,1-.1.36v.58h0a4.47,4.47,0,0,1,2.59-1.44c.5,0,1,.49,1,2a.71.71,0,0,1-.81.74c-.47,0-.74-.18-.74-.44a1.85,1.85,0,0,1,.06-.42c0-.19-.06-.37-.19-.37a4.39,4.39,0,0,0-1.93,1.54v3a.71.71,0,0,1,.19.45c0,.49-.27.73-1.15.73-.51,0-.76-.21-.76-.63a.53.53,0,0,1,.21-.4Z" style="fill:#fff"/><path d="M268.52,24c0,.73-.5,1.4-4.26,2.06l-.74.13a3,3,0,0,0-.12.87,1,1,0,0,0,1.14,1.12,3.1,3.1,0,0,0,2.33-1.07c-.05-.39.27-.71.81-.71a.64.64,0,0,1,.73.7c0,.45-1.41,2.36-4.07,2.36-1.37,0-2.41-.6-2.41-2.28,0-3,2.11-5.17,4.21-5.17A2.15,2.15,0,0,1,268.52,24Zm-4.69,1c2.84-.5,3.25-.74,3.25-1,0-.39-.28-.81-1-.81A2.71,2.71,0,0,0,263.83,25Z" style="fill:#fff"/><path d="M271.55,28.3a.58.58,0,0,1,.11.39c0,.42-.58.58-1,.58s-.81-.16-.81-.55a.51.51,0,0,1,.2-.45V25.74a.64.64,0,0,1-.25-.53,2.47,2.47,0,0,1,.25-1V23a.85.85,0,0,1-.13-.49c0-.32.5-.66,1-.66.63,0,.81.23.81.57a.89.89,0,0,1-.16.5v.63c1.65-1.38,2.4-1.7,3-1.7a1.26,1.26,0,0,1,1.2,1.07v5.29a.79.79,0,0,1,.11.42c0,.5-.32.68-.94.68s-.81-.22-.81-.61a.72.72,0,0,1,.13-.42V23.69c0-.12-.24-.31-.37-.31s-.76.21-2.3,1.5Z" style="fill:#fff"/><path d="M284.85,24.42c0-.55-.08-.7-.36-.7a3.32,3.32,0,0,0-2.33,1.46v3a.73.73,0,0,1,.13.45c0,.4-.57.66-1.08.66s-.67-.18-.67-.52a.89.89,0,0,1,.11-.53V19.83c0-.14-.14-.32-.14-.46,0-.54.44-.83,1-.83.26,0,.78.32.78.73a1.17,1.17,0,0,1-.15.48v3.82h0a4.86,4.86,0,0,1,3-1.44c.84,0,1.13.52,1.13,1.61V28.2c0,.1.13.23.13.36,0,.39-.52.71-1,.71s-.84-.21-.84-.55a.78.78,0,0,1,.18-.53Z" style="fill:#fff"/><path d="M294.39,24c0,.73-.5,1.4-4.26,2.06l-.74.13a2.65,2.65,0,0,0-.12.87,1,1,0,0,0,1.13,1.12,3.13,3.13,0,0,0,2.34-1.07c-.05-.39.27-.71.81-.71a.63.63,0,0,1,.72.7c0,.45-1.4,2.36-4.06,2.36-1.38,0-2.41-.6-2.41-2.28,0-3,2.1-5.17,4.21-5.17A2.16,2.16,0,0,1,294.39,24Zm-4.7,1c2.85-.5,3.26-.74,3.26-1,0-.39-.28-.81-1-.81A2.73,2.73,0,0,0,289.69,25Z" style="fill:#fff"/><path d="M302,24c0,.73-.5,1.4-4.26,2.06l-.74.13a2.65,2.65,0,0,0-.12.87A1,1,0,0,0,298,28.17a3.13,3.13,0,0,0,2.34-1.07c-.05-.39.27-.71.81-.71a.63.63,0,0,1,.72.7c0,.45-1.4,2.36-4.06,2.36-1.38,0-2.41-.6-2.41-2.28,0-3,2.1-5.17,4.21-5.17A2.16,2.16,0,0,1,302,24Zm-4.7,1c2.85-.5,3.26-.74,3.26-1,0-.39-.28-.81-1-.81A2.73,2.73,0,0,0,297.27,25Z" style="fill:#fff"/><path d="M305,28.3a.58.58,0,0,1,.11.39c0,.42-.58.58-1,.58s-.81-.16-.81-.55a.53.53,0,0,1,.19-.45V25.74a.64.64,0,0,1-.24-.53,2.62,2.62,0,0,1,.24-1V23a.94.94,0,0,1-.13-.49c0-.32.51-.66,1-.66s.81.23.81.57a1,1,0,0,1-.16.5v.63c1.65-1.38,2.39-1.7,3-1.7a1.25,1.25,0,0,1,1.19,1.07v5.29a.78.78,0,0,1,.12.42c0,.5-.33.68-.94.68s-.81-.22-.81-.61a.72.72,0,0,1,.13-.42V23.69c0-.12-.24-.31-.37-.31s-.76.21-2.3,1.5Z" style="fill:#fff"/><path d="M312.79,25.21a1.06,1.06,0,0,1,.16.68c0,.37-.6.73-1.18.73a.77.77,0,0,1-.73-.81,1,1,0,0,1,.21-.59V19.77a1,1,0,0,1-.23-.6c0-.53.25-.79,1.25-.79.5,0,.73.18.73.71a1,1,0,0,1-.21.61Zm-1.68,3.45a1.23,1.23,0,0,1,1.08-1.25c.45,0,.66.24.66,1s-.21,1.06-1.06,1.06A.75.75,0,0,1,311.11,28.66Z" style="fill:#fff"/></svg>