<svg id="Laag_1" data-name="Laag 1" xmlns="http://www.w3.org/2000/svg" viewBox="0 0 167 167"><title>zerostate-photos2</title><path d="M61,87.45a.7.7,0,0,1,.15.45c0,.36-.38.56-.8.56s-.71-.17-.71-.53a.82.82,0,0,1,.21-.59V85.16a.83.83,0,0,1-.21-.54,1,1,0,0,1,.21-.59V82.24a.71.71,0,0,1-.24-.52c0-.23.07-.45.25-.47,0-.4.38-.58.74-.58s.51.17.41.41l2.75-.41c.19,0,.27-.13.45-.13.36,0,.66.19.65.52,0,.55-.18.73-.63.73a1,1,0,0,1-.46-.11L61,82.1V84l2.56-.37a.82.82,0,0,1,.52-.15c.23,0,.44.34.44.58,0,.53-.17.69-.57.69a1.06,1.06,0,0,1-.42-.09L61,85Z" style="fill:#fff"/><path d="M69.89,85.27A3.47,3.47,0,0,1,69,87.46a3.16,3.16,0,0,1-2.58,1.14,1.77,1.77,0,0,1-1.65-1.91A3.48,3.48,0,0,1,68.05,83C69.53,83,69.89,84.4,69.89,85.27Zm-4,1.23c0,.71.37,1.15.79,1.15A1.9,1.9,0,0,0,68,87a2.39,2.39,0,0,0,.72-1.71c0-.78-.24-1.4-.91-1.4C66.86,83.93,65.86,85.15,65.86,86.5Z" style="fill:#fff"/><path d="M71.8,82.27a.46.46,0,0,1-.07-.3c0-.33.31-.42.77-.42.24,0,.54,0,.54.37a.5.5,0,0,1-.12.29V83l1.5-.25a.34.34,0,0,1,.22-.1.45.45,0,0,1,.45.49c0,.39-.16.58-.41.58a.23.23,0,0,1-.19-.06l-1.57.25V87.1c0,.2.06.35.21.35a3.71,3.71,0,0,0,1.66-1.14.43.43,0,0,1,.45-.47c.48,0,.62.24.62.58s-2,2.11-3.11,2.11a.92.92,0,0,1-1-1V84.05l-.76.12a.47.47,0,0,1-.25.11.54.54,0,0,1,0-1.08.31.31,0,0,1,.21.08l.81-.15Z" style="fill:#fff"/><path d="M81.32,85.27a3.47,3.47,0,0,1-.93,2.19,3.15,3.15,0,0,1-2.58,1.14,1.77,1.77,0,0,1-1.65-1.91A3.48,3.48,0,0,1,79.47,83C81,83,81.32,84.4,81.32,85.27Zm-4,1.23c0,.71.37,1.15.79,1.15A1.9,1.9,0,0,0,79.46,87a2.43,2.43,0,0,0,.72-1.71c0-.78-.24-1.4-.91-1.4C78.28,83.93,77.29,85.15,77.29,86.5Z" style="fill:#fff"/><path d="M83.55,81.22c0,1.07-.65,1.78-1.1,1.78-.21,0-.34-.08-.34-.25a.29.29,0,0,1,.28-.33.91.91,0,0,0,.65-1,.62.62,0,0,1-.42.22c-.28,0-.47-.22-.47-.64a.77.77,0,0,1,.75-.78C83.33,80.25,83.55,80.59,83.55,81.22Z" style="fill:#fff"/><path d="M88.46,83.6a.44.44,0,0,1-.47.47c-.22,0-.24-.06-.29-.12s-.13-.14-.63-.14c-1.19,0-2.1.63-2.1,1.17a.29.29,0,0,0,.33.31A7,7,0,0,0,86.41,85a4.87,4.87,0,0,1,1.34-.28A1.2,1.2,0,0,1,89.06,86c0,1.92-2.51,2.55-3.43,2.55s-1.67-.45-1.67-1a.58.58,0,0,1,.6-.64c.35,0,.44.21.44.31a.39.39,0,0,1,0,.17,1,1,0,0,0,.71.27c.82,0,2.27-.52,2.27-1.45a.44.44,0,0,0-.5-.48,5.06,5.06,0,0,0-1.11.26,4.9,4.9,0,0,1-1.42.26,1,1,0,0,1-1.06-1.11c0-1.27,1.78-2.18,3.2-2.18C87.83,82.92,88.46,83.15,88.46,83.6Z" style="fill:#fff"/><path d="M74,94.5s-1.5,28,28,28h57.94" style="fill:none;stroke:#fff;stroke-miterlimit:10"/><polygon points="167 122.5 157.05 126.56 159.41 122.5 157.05 118.44 167 122.5" style="fill:#fff"/></svg>