<svg id="Laag_1" data-name="Laag 1" xmlns="http://www.w3.org/2000/svg" viewBox="0 0 167 167"><title>zerostate-photos1</title><path d="M28,75.45a.7.7,0,0,1,.15.45c0,.36-.38.56-.8.56s-.71-.17-.71-.53a.82.82,0,0,1,.21-.59V73.16a.83.83,0,0,1-.21-.54,1,1,0,0,1,.21-.59V70.24a.71.71,0,0,1-.24-.52c0-.23.07-.45.25-.47,0-.4.38-.58.74-.58s.51.17.41.41l2.75-.41c.19,0,.27-.13.45-.13.36,0,.66.19.65.52,0,.55-.18.73-.63.73a1,1,0,0,1-.46-.11L28,70.1V72l2.56-.37a.82.82,0,0,1,.52-.15c.23,0,.44.34.44.58,0,.53-.17.69-.57.69a1.06,1.06,0,0,1-.42-.09L28,73Z" style="fill:#fff"/><path d="M36.89,73.27A3.47,3.47,0,0,1,36,75.46a3.16,3.16,0,0,1-2.58,1.14,1.77,1.77,0,0,1-1.65-1.91A3.48,3.48,0,0,1,35.05,71C36.53,71,36.89,72.4,36.89,73.27Zm-4,1.23c0,.71.37,1.15.79,1.15A1.9,1.9,0,0,0,35,75a2.39,2.39,0,0,0,.72-1.71c0-.78-.24-1.4-.91-1.4C33.86,71.93,32.86,73.15,32.86,74.5Z" style="fill:#fff"/><path d="M38.8,70.27a.46.46,0,0,1-.07-.3c0-.33.31-.42.77-.42.24,0,.54,0,.54.37a.5.5,0,0,1-.12.29V71l1.5-.25a.34.34,0,0,1,.22-.1.45.45,0,0,1,.45.49c0,.39-.16.58-.41.58a.23.23,0,0,1-.19-.06l-1.57.25V75.1c0,.2.06.35.21.35a3.71,3.71,0,0,0,1.66-1.14.43.43,0,0,1,.45-.47c.48,0,.62.24.62.58s-2,2.11-3.11,2.11a.92.92,0,0,1-1-1V72.05l-.76.12a.47.47,0,0,1-.25.11.54.54,0,0,1,0-1.08.31.31,0,0,1,.21.08l.81-.15Z" style="fill:#fff"/><path d="M48.32,73.27a3.47,3.47,0,0,1-.93,2.19,3.15,3.15,0,0,1-2.58,1.14,1.77,1.77,0,0,1-1.65-1.91A3.48,3.48,0,0,1,46.47,71C48,71,48.32,72.4,48.32,73.27Zm-4,1.23c0,.71.37,1.15.79,1.15A1.9,1.9,0,0,0,46.46,75a2.43,2.43,0,0,0,.72-1.71c0-.78-.24-1.4-.91-1.4C45.28,71.93,44.29,73.15,44.29,74.5Z" style="fill:#fff"/><path d="M50.55,69.22c0,1.07-.65,1.78-1.1,1.78-.21,0-.34-.08-.34-.25a.29.29,0,0,1,.28-.33.91.91,0,0,0,.65-1,.62.62,0,0,1-.42.22c-.28,0-.47-.22-.47-.64a.77.77,0,0,1,.75-.78C50.33,68.25,50.55,68.59,50.55,69.22Z" style="fill:#fff"/><path d="M55.46,71.6a.44.44,0,0,1-.47.47c-.22,0-.24-.06-.29-.12s-.13-.14-.63-.14c-1.19,0-2.1.63-2.1,1.17a.29.29,0,0,0,.33.31A7,7,0,0,0,53.41,73a4.87,4.87,0,0,1,1.34-.28A1.2,1.2,0,0,1,56.06,74c0,1.92-2.51,2.55-3.43,2.55s-1.67-.45-1.67-1a.58.58,0,0,1,.6-.64c.35,0,.44.21.44.31a.39.39,0,0,1,0,.17,1,1,0,0,0,.71.27c.82,0,2.27-.52,2.27-1.45a.44.44,0,0,0-.5-.48,5.06,5.06,0,0,0-1.11.26,4.9,4.9,0,0,1-1.42.26,1,1,0,0,1-1.06-1.11c0-1.27,1.78-2.18,3.2-2.18C54.83,70.92,55.46,71.15,55.46,71.6Z" style="fill:#fff"/><path d="M41,82.5s-1.5,28,28,28H95.94" style="fill:none;stroke:#fff;stroke-miterlimit:10"/><polygon points="103 110.5 93.05 114.56 95.41 110.5 93.05 106.44 103 110.5" style="fill:#fff"/><rect x="124.5" y="62.5" width="20" height="20" rx="1.43" ry="1.43" style="fill:none;stroke:#fff;stroke-miterlimit:10;stroke-width:1.05263157894737px"/><rect x="124.5" y="87.5" width="20" height="20" rx="1.43" ry="1.43" style="fill:none;stroke:#fff;stroke-miterlimit:10;stroke-width:1.05263157894737px"/><rect x="124.5" y="112.5" width="20" height="20" rx="1.43" ry="1.43" style="fill:none;stroke:#fff;stroke-miterlimit:10;stroke-width:1.05263157894737px"/><rect x="124.5" y="137.5" width="20" height="20" rx="1.43" ry="1.43" style="fill:none;stroke:#fff;stroke-miterlimit:10;stroke-width:1.05263157894737px"/></svg>